# xmcd CD database file
#
# Track frame offsets:
#	150
#	15292
#	25630
#	39795
#	48472
#	63775
#	76132
#	86632
#	98840
#	110045
#
# Disc length: 1591 seconds
#
# Revision: 1
# Processed by: cddbd v1.5.2PL0 Copyright (c) Steve Scherf et al.
# Submitted via: CDex 1.70beta2
#
DISCID=6506350a
DTITLE=Larry Butler - Just Follow The Roses
DYEAR=1998
DGENRE=Country
TTITLE0=Just Follow The Roses
TTITLE1=Pride Of New Orleans
TTITLE2=They´ll Never Take Her From Me
TTITLE3=House Of Blue Lovers
TTITLE4=Wave Daddy Bye Bye
TTITLE5=Barbed Wire,Bob Cats,Bob Wills
TTITLE6=Find Your Place In Life
TTITLE7=Acapulco
TTITLE8=M.C.T.R.A.
TTITLE9=Speaking Of Angles
EXTD=YEAR: 1998
EXTT0=
EXTT1=
EXTT2=
EXTT3=
EXTT4=
EXTT5=
EXTT6=
EXTT7=
EXTT8=
EXTT9=
PLAYORDER=
